<?xml version="1.0" encoding="utf-8"?>
<!-- Generator: Adobe Illustrator 23.0.1, SVG Export Plug-In . SVG Version: 6.00 Build 0)  -->
<svg version="1.1" id="Layer_1" xmlns="http://www.w3.org/2000/svg" xmlns:xlink="http://www.w3.org/1999/xlink" x="0px" y="0px"
	 viewBox="0 0 1000.03 295.82" style="enable-background:new 0 0 1000.03 295.82;" xml:space="preserve">
<style type="text/css">
	.st0{fill:#FFFFFF;}
</style>
<line class="st0" x1="170.23" y1="84.42" x2="170.23" y2="84.42"/>
<path class="st0" d="M218.06,39.57"/>
<path class="st0" d="M564.74,161.52"/>
<path class="st0" d="M568.94,205.95c-2.57,0-4.65-2.08-4.65-4.65v-80.67c0-44.37,35.33-80.38,79.15-81.03l0-0.03l118.81,0
	c1.49,0,2.68,1.23,2.59,2.72c-0.56,9.39-1.4,26.39-1.79,39.4c-0.04,1.4-1.16,2.51-2.57,2.5c-15.78-0.02-100.97-0.13-100.97-0.13h0
	c-19.92,0-36.08,16.15-36.08,36.08v41.3h0.84h1.3l141.59,0.08c0.63,0,1.17,0.45,1.28,1.07c2.78,15.1,5.99,29.44,10.97,41.53
	c0.17,0.41,0.12,0.86-0.12,1.23c-0.25,0.38-0.65,0.59-1.1,0.59H568.94z"/>
<line class="st0" x1="432.92" y1="84.42" x2="432.92" y2="84.42"/>
<line class="st0" x1="170.23" y1="84.42" x2="170.23" y2="84.42"/>
<path class="st0" d="M218.06,39.57"/>
<path class="st0" d="M210.38,205.95l0-0.03c43.82-0.64,78.93-36.02,78.93-79.99l0.28-19.94c0.01-1.04-0.83-1.9-1.87-1.9l-196.29,0
	c0-9.48,7.81-22.16,21.93-22.16h176c0.76,0,1.43-0.46,1.72-1.15c6.61-15.76,18.08-28.96,32.56-37.72c1.64-0.99,0.97-3.49-0.94-3.49
	H113.87l0,0.03c-43.82,0.64-79.15,36.33-79.15,80.3v21.56h198.1c-0.02,9.47-7.82,22.12-21.93,22.12l-175.81,0
	c-0.76,0-1.45,0.46-1.75,1.15c-6.61,15.76-18.08,28.96-32.56,37.72c-1.64,0.99-0.39,3.49,1.53,3.49H210.38z"/>
<path class="st0" d="M475.16,205.95l0-0.03c43.82-0.64,78.93-36.02,78.93-79.99l0.28-19.94c0.01-1.04-0.83-1.9-1.87-1.9l-196.29,0
	c0-9.48,7.81-22.16,21.93-22.16h176c0.76,0,1.43-0.46,1.72-1.15c6.61-15.76,18.08-28.96,32.56-37.72c1.64-0.99,0.97-3.49-0.94-3.49
	H378.66l0,0.03c-43.82,0.64-79.15,36.33-79.15,80.3v21.56h198.1c-0.02,9.47-7.82,22.12-21.93,22.12l-175.81,0
	c-0.76,0-1.45,0.46-1.75,1.15c-6.61,15.76-18.08,28.96-32.56,37.72c-1.64,0.99-0.39,3.49,1.53,3.49H475.16z"/>
<polygon class="st0" points="781.86,131.37 888.58,81.64 995.98,131.72 995.29,138.28 888.58,88.2 782.55,138.28 "/>
<polygon class="st0" points="783.59,145.88 888.58,95.8 993.91,146.22 990.11,167.29 888.58,119.29 787.39,167.64 "/>
<polygon class="st0" points="789.57,173.32 888.58,127.23 988.15,173.66 987.46,180.22 888.58,133.79 790.26,180.23 "/>
<g>
	<path class="st0" d="M223.67,222.48v31.95h-6.39l-22.91-23.09v23.09h-7.07v-31.95h7.76l21.54,21.91v-21.91H223.67z"/>
	<path class="st0" d="M239.32,238.45c0-10.68,7.85-16.98,20.31-16.98c12.46,0,20.31,6.3,20.31,16.98s-7.85,16.98-20.31,16.98
		C247.17,255.43,239.32,249.13,239.32,238.45z M272.5,238.45c0-6.85-4.97-10.68-12.87-10.68c-7.9,0-12.87,3.83-12.87,10.68
		s4.93,10.68,12.87,10.68C267.53,249.13,272.5,245.3,272.5,238.45z"/>
	<path class="st0" d="M323.62,254.42l-9.17-10.86H302.9v10.86h-7.26v-31.95h22.04c7.8,0,13.69,3.61,13.69,10.54
		c0,5.43-3.61,8.81-8.9,10.04l9.86,11.36H323.62z M317.27,237.54c3.83,0,6.66-0.91,6.66-4.47c0-3.56-2.83-4.47-6.66-4.47h-14.42
		v8.95H317.27z"/>
	<path class="st0" d="M378.11,228.77h-13.97v25.65h-7.3v-25.65h-13.87v-6.3h35.14V228.77z"/>
	<path class="st0" d="M428.63,222.48v31.95h-7.3v-13.01h-21.77v13.01h-7.3v-31.95h7.3v12.55h21.77v-12.55H428.63z"/>
	<path class="st0" d="M492.89,247.67h-19.31l-3.42,6.75h-7.8l16.93-31.95h7.99l16.93,31.95h-7.9L492.89,247.67z M489.84,241.74
		l-6.62-13.01l-6.62,13.01H489.84z"/>
	<path class="st0" d="M560.44,222.48v31.95h-7.3V232.2l-14.01,17.12h-0.37l-14.01-17.12v22.23h-7.07v-31.95h7.94l13.51,16.89
		l13.51-16.89H560.44z"/>
	<path class="st0" d="M611.05,248.31v6.12h-32.91v-31.95h32.45v6.12h-25.19v6.57h21.04v6.12h-21.04v7.03H611.05z"/>
	<path class="st0" d="M654.46,254.42l-9.17-10.86h-11.55v10.86h-7.26v-31.95h22.04c7.8,0,13.69,3.61,13.69,10.54
		c0,5.43-3.61,8.81-8.9,10.04l9.86,11.36H654.46z M648.11,237.54c3.83,0,6.66-0.91,6.66-4.47c0-3.56-2.83-4.47-6.66-4.47h-14.42
		v8.95H648.11z"/>
	<path class="st0" d="M678.14,254.42v-31.95h7.3v31.95H678.14z"/>
	<path class="st0" d="M731.77,243.93l6.66,3.33c-3.01,4.52-9.17,8.17-17.53,8.17c-12,0-19.81-6.34-19.81-16.98
		s7.8-16.98,20.13-16.98c8.03,0,14.19,3.7,17.11,8.12l-6.71,3.33c-2.28-3.56-5.75-5.16-10.5-5.16c-7.58,0-12.6,3.65-12.6,10.68
		s5.02,10.68,12.6,10.68C725.88,249.13,729.4,247.58,731.77,243.93z"/>
	<path class="st0" d="M778.55,247.67h-19.31l-3.42,6.75h-7.8l16.93-31.95h7.99l16.93,31.95h-7.9L778.55,247.67z M775.49,241.74
		l-6.62-13.01l-6.62,13.01H775.49z"/>
</g>
<path class="st0" d="M997.71,26.21c0,0-49.9-25.21-108.96-25.21c-59.06,0-108.9,25.05-108.9,25.05s-1.68,21.02-2.33,45.89
	c-0.65,24.86-0.33,50.26,2.53,70.14c4.81,33.36,12.86,60.61,36.87,92.9c24,32.29,72.01,60.84,72.01,60.84s45.88-27.74,71.66-60.67
	c16.8-21.45,26.42-42.48,32.53-71.61c1.23-5.88,2.38-12.58,3.56-19.91C1002.97,104.44,998.74,36.92,997.71,26.21z M996.09,72.42
	L979.81,48.7l3.71-5.31c6.6,2.61,11.31,4.66,11.31,4.66S995.73,57.17,996.09,72.42z M783.09,29.2c0,0,53.66-24.41,105.58-24.41
	s104.87,24.34,104.87,24.34l0.91,14.76c0,0-48.42-23.56-105.65-23.56c-12.69,0-24.98,1.15-36.43,2.95l0.15-0.21l-1.47,0.42
	c-39.52,6.39-68.67,20.28-68.67,20.28L783.09,29.2z M979.3,48.7l-18.02,25.84L943.55,48.7l10.61-15.21
	c1.07,0.28,2.11,0.56,3.11,0.83c4.83,1.29,10.28,3.1,15.5,4.99L979.3,48.7z M943.03,48.7l-18.02,25.84L907.28,48.7l15.47-22.18
	c1.88,0.3,3.73,0.62,5.53,0.95L943.03,48.7z M906.77,48.7l-18.02,25.84L871.02,48.7l17.44-25c0.06,0,0.11,0,0.17,0
	c0.26,0,0.52,0.01,0.78,0.01L906.77,48.7z M870.5,48.7l-18.02,25.85L834.75,48.7l14.88-21.33c1.85-0.32,3.66-0.61,5.44-0.88
	L870.5,48.7z M834.24,48.7l-18.02,25.84L798.49,48.7l6.66-9.55c6.2-2.26,12.34-4.2,18.37-5.88L834.24,48.7z M782.42,48.83
	c3.94-1.95,7.91-3.75,11.88-5.42l3.68,5.29l-16.72,23.98C781.64,58.88,782.42,48.83,782.42,48.83z M781.16,76.32l16.81,24.19
	l-15.71,22.54c-0.96-12.1-1.02-21.74-1.13-27.27C780.99,89.03,781.03,82.39,781.16,76.32z M816.93,228.94
	c-0.02-0.03-0.04-0.05-0.06-0.08c-6.39-8.94-11.68-18.44-16.04-28.1l15.57-22.31l17.84,25.67L816.93,228.94z M869.32,254.92
	c-6.04-0.69-10.14-1.28-15.31-2.24c-2.7-0.5-5.72-1.23-8.52-1.99c-1.98-0.54-4.16-1.21-5.77-1.88l12.95-18.56l17.18,24.72
	C869.67,254.96,869.49,254.94,869.32,254.92z M852.49,229.97l-17.73-25.84l17.91-25.68l17.84,25.67L852.49,229.97z M888.03,255.82
	c-5.06,0.01-10.99-0.15-16.47-0.66l17.37-24.9l17.27,24.86C901.47,255.54,895.08,255.8,888.03,255.82z M888.75,229.97l-17.73-25.84
	l17.91-25.68l17.84,25.67L888.75,229.97z M937.96,248.88c-13.53,4.64-23.97,5.5-29.99,6.07l17.23-24.69l12.9,18.57
	C938.05,248.84,938.01,248.87,937.96,248.88z M925.02,229.97l-17.73-25.84l17.91-25.68l17.84,25.67L925.02,229.97z M960.29,228.52
	l-16.74-24.4l17.91-25.68l15.47,22.26C972.12,210.86,966.1,220.6,960.29,228.52z M995.29,138.28l-1.77-0.83
	c-0.33,2.69-0.71,5.37-1.12,8.05l1.51,0.72l-3.8,21.07l-1.71-0.81c-0.52,2.21-1.06,4.38-1.63,6.53l1.38,0.65l-0.69,6.56l-20.8-9.77
	l-5.37,7.71l-10.36-15.09l-11.59-5.44l-14.32,20.54l-17.73-25.84l5.12-7.34l-15.93-7.48l10.29,14.81l-18.02,25.85l-17.73-25.84
	l10.65-15.26l-16.39,7.74l5.22,7.52l-18.02,25.85l-14.16-20.63l-11.51,5.44l-10.59,15.2l-5.28-7.7l-20.68,9.77l-0.69-6.91l1.18-0.55
	c-0.56-2.01-1.07-4.01-1.57-5.99l-1.8,0.86l-3.8-21.76l1.28-0.61c-0.4-2.57-0.77-5.1-1.08-7.57l-1.24,0.58l-0.69-6.91l1.12-0.52
	c0-0.05-0.01-0.09-0.02-0.14l0.08,0.11l27.47-12.8l-12.02-17.52l17.91-25.68l17.84,25.67l-6.67,9.57l10.42-4.86l-3.23-4.71
	l17.91-25.68l12.36,17.79l17.04-7.94l6.87-9.85l7.17,10.32l16.52,7.7l12.57-18.02l17.84,25.67l-3.44,4.93l10.78,5.02l-6.83-9.95
	l17.91-25.68l17.84,25.67l-12.33,17.69l29.01,13.53L995.29,138.28z M995.17,119.73c-0.06,0.95-0.13,1.91-0.2,2.87l-15.16-22.08
	l16.37-23.46C996.35,88.69,996.19,103.26,995.17,119.73z"/>
</svg>
