<?xml version="1.0" encoding="utf-8"?>
<!-- Generator: Adobe Illustrator 24.3.0, SVG Export Plug-In . SVG Version: 6.00 Build 0)  -->
<svg version="1.1" id="Layer_1" xmlns="http://www.w3.org/2000/svg" xmlns:xlink="http://www.w3.org/1999/xlink" x="0px" y="0px"
	 viewBox="0 0 306.1 63.7" style="enable-background:new 0 0 306.1 63.7;" xml:space="preserve">
<style type="text/css">
	.st0{fill:#FFFFFF;}
	.st1{opacity:0.75;fill:#FFFFFF;enable-background:new    ;}
	.st2{fill:url(#SVGID_1_);}
	.st3{fill:url(#SVGID_2_);}
	.st4{fill:url(#SVGID_3_);}
	.st5{fill:url(#SVGID_4_);}
	.st6{fill:url(#SVGID_5_);}
	.st7{fill:url(#SVGID_6_);}
</style>
<g>
	<path class="st0" d="M157.4,9.3c-0.2-0.5-0.4-0.9-0.7-1.3l-2.9,0.4c-0.5,0.1-1.1,0.2-1.6,0.4c0.6,0.6,1.1,1.3,1.4,2.1
		c0.6,1.5,0.9,3.1,0.9,4.6l0.3,44.9c0,0.1,0.1,0.2,0.2,0.2c0,0,0.1,0,0.1,0l2.8-2.6c0.6-0.5,0.9-1.2,0.9-2l-0.3-40.4
		C158.6,13.4,158.2,11.3,157.4,9.3z"/>
	<path class="st1" d="M152.5,11.3c-0.3-0.6-0.6-1.2-1.1-1.6l-0.1-0.1l0,0c-0.3,0.2-0.5,0.5-0.8,0.8c-0.2,0.3-0.4,0.6-0.5,0.9
		c-0.4,0.9-0.7,1.9-0.8,2.9l0.4,48.3c0,0.2,0.1,0.4,0.3,0.5c1,0.7,2.3,0.7,3.3,0c0.2-0.1,0.3-0.3,0.3-0.6l-0.2-47.7
		C153.2,13.7,153,12.5,152.5,11.3z"/>
	<path class="st1" d="M159.5,8.8c0.4,1,0.8,2,1,3.1l15.4-1.9c2.3-0.3,4-2.2,4-4.5L159.1,8C159.2,8.2,159.4,8.5,159.5,8.8z"/>
	<path class="st0" d="M148.7,10.8c-0.6,1.5-1,3.1-0.9,4.7l0.3,44.4c0,0.1-0.1,0.2-0.2,0.2c0,0-0.1,0-0.1,0l-2.9-2.7
		c-0.6-0.5-0.9-1.2-0.9-2l-0.3-39.9c0-2.1,0.4-4.2,1.2-6.2c0.4-0.9,0.9-1.7,1.5-2.4L123.1,4V1.2c0-0.6,0.5-1.1,1.1-1.1
		c0,0,0.1,0,0.1,0l24.9,3c1.3,0.2,2.7,0.2,4,0l0,0L178.7,0c0.6-0.1,1.2,0.3,1.2,1c0,0,0,0.1,0,0.1v2.8l-26.2,3.2
		C151.5,7.5,149.7,8.9,148.7,10.8z"/>
	<path class="st1" d="M143.3,7.9l-20.2-2.5l0,0c0,2.3,1.7,4.2,4,4.5l14.9,1.8c0.2-1,0.5-2,0.9-3C143,8.5,143.2,8.2,143.3,7.9z"/>
</g>
<linearGradient id="SVGID_1_" gradientUnits="userSpaceOnUse" x1="46.3118" y1="29.9301" x2="77.3919" y2="29.9301">
	<stop  offset="0" style="stop-color:#FFFFFF;stop-opacity:0.5"/>
	<stop  offset="1" style="stop-color:#FFFFFF;stop-opacity:0.75"/>
</linearGradient>
<path class="st2" d="M61.8,44.7c-9.6,0-15.5-5.5-15.5-14.4V15.2l0.5,0c2.8,0,5.2,2.4,5.2,5.3V30c0,6,3.6,9.5,9.8,9.5
	c6.2,0,9.8-3.5,9.8-9.5v-9.6c0-2.9,2.4-5.3,5.2-5.3h0.5l0,0.5v14.6C77.4,39.2,71.4,44.7,61.8,44.7z M47.3,16.2v14.1
	c0,8.4,5.4,13.4,14.5,13.4c9.1,0,14.6-5,14.6-13.4V16.2c-2.1,0.2-3.8,2-3.8,4.2V30c0,6.6-4,10.5-10.8,10.5C55,40.5,51,36.6,51,30
	v-9.6C51,18.3,49.4,16.5,47.3,16.2z"/>
<linearGradient id="SVGID_2_" gradientUnits="userSpaceOnUse" x1="90.4725" y1="29.5138" x2="127.3201" y2="29.5138">
	<stop  offset="0" style="stop-color:#FFFFFF;stop-opacity:0.75"/>
	<stop  offset="1" style="stop-color:#FFFFFF"/>
</linearGradient>
<path class="st3" d="M96.8,43.9h-6.3L106,15.2h5.8l15.5,28.7H121l-3.6-6.7h-9.3c-0.2,0-0.3,0-0.5,0c-2.2-0.3-3.8-2.3-3.5-4.5
	l0.1-0.4h10.6l-5.9-11.3L96.8,43.9z M92.2,42.9h4l12.7-24.1l7.6,14.4h-11.4c0,1.5,1.2,2.8,2.7,3c0.1,0,0.2,0,0.4,0h9.9l3.6,6.7h4
	l-14.4-26.7h-4.6L92.2,42.9z"/>
<linearGradient id="SVGID_3_" gradientUnits="userSpaceOnUse" x1="174.2425" y1="29.5138" x2="211.1927" y2="29.5138">
	<stop  offset="0" style="stop-color:#FFFFFF"/>
	<stop  offset="1" style="stop-color:#FFFFFF;stop-opacity:0.75"/>
</linearGradient>
<path class="st4" d="M180.5,43.9h-6.3l15.5-28.7h5.8l15.6,28.7h-6.3l-3.6-6.7H192c-0.2,0-0.3,0-0.5,0c-2.2-0.3-3.8-2.3-3.5-4.5
	l0.1-0.4h10.6l-6-11.3L180.5,43.9z M175.9,42.9h4l12.7-24.1l7.7,14.4H189c0,1.5,1.2,2.8,2.7,3c0.1,0,0.3,0,0.4,0h9.9l3.6,6.7h4
	L195,16.2h-4.6L175.9,42.9z"/>
<linearGradient id="SVGID_4_" gradientUnits="userSpaceOnUse" x1="270.5433" y1="29.5138" x2="307.39" y2="29.5138">
	<stop  offset="0" style="stop-color:#FFFFFF;stop-opacity:0.5"/>
	<stop  offset="1" style="stop-color:#FFFFFF;stop-opacity:0.25"/>
</linearGradient>
<path class="st5" d="M276.8,43.9h-6.2l15.5-28.7h5.8l15.5,28.7h-6.3l-3.6-6.7h-9.3c-0.2,0-0.3,0-0.5,0c-2.2-0.3-3.8-2.3-3.5-4.5
	l0.1-0.4h10.6l-5.9-11.3L276.8,43.9z M272.2,42.9h4l12.7-24.1l7.6,14.4h-11.4c0,1.5,1.2,2.8,2.7,3c0.1,0,0.2,0,0.4,0h9.9l3.6,6.7h4
	l-14.4-26.7h-4.6L272.2,42.9z"/>
<linearGradient id="SVGID_5_" gradientUnits="userSpaceOnUse" x1="226.3822" y1="29.5138" x2="258.8734" y2="29.5138">
	<stop  offset="0" style="stop-color:#FFFFFF;stop-opacity:0.75"/>
	<stop  offset="1" style="stop-color:#FFFFFF;stop-opacity:0.5"/>
</linearGradient>
<path class="st6" d="M258.9,43.9h-7.2l-8.6-10h-4c-2.1,0-4.1-1.3-4.9-3.2l-0.2-0.4c-0.1-0.1-0.1-0.3-0.1-0.4c0-0.6,0.5-1,1-1
	c0,0,0,0,0,0h10.5c4.1,0,6.2-1.4,6.2-4.2s-2-4.2-6.2-4.2h-13.3v23.5h-5.7V15.2h19.3c7.1,0,11.7,3.7,11.7,9.3c0,4.5-2.9,7.7-7.7,8.9
	L258.9,43.9z M252.1,42.9h4.5l-8.9-10.1l0.9-0.2c4.9-0.9,7.7-3.8,7.7-8.1c0-5.1-4.1-8.3-10.7-8.3h-18.3v26.7h3.7V19.3h14.3
	c4.8,0,7.2,1.8,7.2,5.2c0,2.4-1.2,5.2-7.2,5.2h-10.5l0.2,0.5c0.7,1.6,2.3,2.6,4,2.6h4.5L252.1,42.9z"/>
<linearGradient id="SVGID_6_" gradientUnits="userSpaceOnUse" x1="-1.823399e-02" y1="29.4941" x2="30.9119" y2="29.4941">
	<stop  offset="0" style="stop-color:#FFFFFF;stop-opacity:0.25"/>
	<stop  offset="1" style="stop-color:#FFFFFF;stop-opacity:0.5"/>
</linearGradient>
<path class="st7" d="M13,43.8h-0.5V20.3H4.6c-2.6,0-4.7-2.1-4.7-4.7v-0.5h30.9v0.5c0,2.6-2.1,4.7-4.7,4.7h-8v18.3
	C18.3,41.5,15.9,43.8,13,43.8z M1,16.1c0.2,1.8,1.8,3.2,3.6,3.2h8.9v23.5c2.1-0.2,3.8-2,3.8-4.2V19.3h9c1.8,0,3.4-1.4,3.6-3.2H1z"/>
</svg>
